<svg width="261" height="318" viewBox="0 0 261 318" fill="none" xmlns="http://www.w3.org/2000/svg">
<rect width="261" height="318" rx="35" fill="#C4C4C4"/>
<rect x="41" y="186" width="79" height="44" rx="11" fill="#5F5F5F"/>
<rect x="41" y="131" width="79" height="44" rx="11" fill="#5F5F5F"/>
<rect x="141" y="186" width="79" height="44" rx="11" fill="#5F5F5F"/>
<rect x="141" y="131" width="79" height="44" rx="11" fill="#5F5F5F"/>
<rect x="141" y="241" width="79" height="44" rx="11" fill="#5F5F5F"/>
<rect x="41" y="241" width="79" height="44" rx="11" fill="#5F5F5F"/>
<g clip-path="url(#clip0)">
<path d="M144.496 41.5203L89.1435 24.4473C86.1273 23.5169 82.8729 23.5169 79.8586 24.4473L24.5045 41.5203C19.8333 42.9607 19.8333 49.1623 24.5045 50.6027L34.1545 53.579C32.0372 56.2067 30.7354 59.4122 30.6065 62.9224C28.6955 64.0221 27.3501 66.0063 27.3501 68.375C27.3501 70.5226 28.4772 72.3295 30.1005 73.485L25.0343 96.3712C24.5938 98.3614 26.1019 100.25 28.1319 100.25H39.2663C41.2983 100.25 42.8064 98.3614 42.3659 96.3712L37.2998 73.485C38.923 72.3295 40.0501 70.5226 40.0501 68.375C40.0501 66.07 38.7662 64.1416 36.9426 63.022C37.0934 60.0297 38.6174 57.3841 41.0482 55.7067L79.8567 67.6777C81.6545 68.2316 85.1034 68.9229 89.1416 67.6777L144.496 50.6047C149.169 49.1623 149.169 42.9627 144.496 41.5203V41.5203ZM91.0069 73.7718C85.3454 75.517 80.5214 74.5528 77.9914 73.7718L49.2139 64.8966L46.4001 87.5C46.4001 94.5424 63.4578 100.25 84.5001 100.25C105.542 100.25 122.6 94.5424 122.6 87.5L119.786 64.8947L91.0069 73.7718V73.7718Z" fill="#5F5F5F"/>
</g>
<defs>
<clipPath id="clip0">
<rect width="127" height="102" fill="white" transform="translate(21 11)"/>
</clipPath>
</defs>
</svg>
