<svg width="261" height="318" viewBox="0 0 261 318" fill="none" xmlns="http://www.w3.org/2000/svg">
<rect width="261" height="318" rx="35" fill="#C4C4C4"/>
<g clip-path="url(#clip0)">
<path d="M190.496 46.5203L135.143 29.4473C132.127 28.5169 128.873 28.5169 125.859 29.4473L70.5044 46.5203C65.8332 47.9607 65.8332 54.1623 70.5044 55.6027L80.1544 58.579C78.0371 61.2067 76.7353 64.4121 76.6063 67.9224C74.6954 69.0221 73.35 71.0063 73.35 73.375C73.35 75.5226 74.4771 77.3295 76.1003 78.485L71.0342 101.371C70.5937 103.361 72.1018 105.25 74.1318 105.25H85.2662C87.2982 105.25 88.8063 103.361 88.3658 101.371L83.2996 78.485C84.9229 77.3295 86.05 75.5226 86.05 73.375C86.05 71.07 84.7661 69.1416 82.9425 68.022C83.0933 65.0297 84.6173 62.3841 87.0481 60.7067L125.857 72.6777C127.654 73.2316 131.103 73.9229 135.141 72.6777L190.496 55.6047C195.169 54.1623 195.169 47.9627 190.496 46.5203V46.5203ZM137.007 78.7718C131.345 80.517 126.521 79.5528 123.991 78.7718L95.2138 69.8966L92.4 92.5C92.4 99.5424 109.458 105.25 130.5 105.25C151.542 105.25 168.6 99.5424 168.6 92.5L165.786 69.8946L137.007 78.7718V78.7718Z" fill="#5F5F5F"/>
</g>
<rect x="45" y="193" width="79" height="44" rx="11" fill="#5F5F5F"/>
<rect x="138" y="193" width="79" height="44" rx="11" fill="#5F5F5F"/>
<rect x="138" y="140" width="79" height="44" rx="11" fill="#5F5F5F"/>
<rect x="45" y="246" width="79" height="44" rx="11" fill="#5F5F5F"/>
<rect x="138" y="246" width="79" height="44" rx="11" fill="#5F5F5F"/>
<rect x="45" y="139" width="79" height="44" rx="11" fill="#5F5F5F"/>
<defs>
<clipPath id="clip0">
<rect width="127" height="102" fill="white" transform="translate(67 16)"/>
</clipPath>
</defs>
</svg>
