<svg width="261" height="318" viewBox="0 0 261 318" fill="none" xmlns="http://www.w3.org/2000/svg">
<path fill-rule="evenodd" clip-rule="evenodd" d="M158 0L35 9.00455e-06C15.67 9.00455e-06 0 15.67 0 35V283C0 302.33 15.67 318 35 318H226C245.33 318 261 302.33 261 283V103L158 0Z" fill="#C4C4C4"/>
<path d="M261 103H158V0L261 103Z" fill="#E5E5E5"/>
<rect x="45" y="192" width="79" height="44" rx="11" fill="#E5E5E5"/>
<rect x="138" y="192" width="79" height="44" rx="11" fill="#E5E5E5"/>
<rect x="138" y="245" width="79" height="44" rx="11" fill="#E5E5E5"/>
<rect x="45" y="138" width="79" height="44" rx="11" fill="#E5E5E5"/>
<g clip-path="url(#clip0)">
<path d="M141.496 50.5203L86.1434 33.4473C83.1272 32.5169 79.8728 32.5169 76.8585 33.4473L21.5044 50.5203C16.8332 51.9607 16.8332 58.1623 21.5044 59.6027L31.1544 62.579C29.0371 65.2067 27.7353 68.4121 27.6064 71.9224C25.6954 73.0221 24.35 75.0063 24.35 77.375C24.35 79.5226 25.4771 81.3295 27.1003 82.485L22.0342 105.371C21.5937 107.361 23.1018 109.25 25.1318 109.25H36.2662C38.2982 109.25 39.8063 107.361 39.3658 105.371L34.2997 82.485C35.9229 81.3295 37.05 79.5226 37.05 77.375C37.05 75.07 35.7661 73.1416 33.9425 72.022C34.0933 69.0297 35.6173 66.3841 38.0481 64.7067L76.8566 76.6777C78.6544 77.2316 82.1033 77.9229 86.1415 76.6777L141.496 59.6047C146.169 58.1623 146.169 51.9627 141.496 50.5203V50.5203ZM88.0068 82.7718C82.3453 84.517 77.5213 83.5528 74.9913 82.7718L46.2138 73.8966L43.4 96.5C43.4 103.542 60.4577 109.25 81.5 109.25C102.542 109.25 119.6 103.542 119.6 96.5L116.786 73.8946L88.0068 82.7718V82.7718Z" fill="#E5E5E5"/>
</g>
<defs>
<clipPath id="clip0">
<rect width="127" height="102" fill="white" transform="translate(18 20)"/>
</clipPath>
</defs>
</svg>
