<svg width="261" height="318" viewBox="0 0 261 318" fill="none" xmlns="http://www.w3.org/2000/svg">
<path fill-rule="evenodd" clip-rule="evenodd" d="M158 0L35 9.00455e-06C15.67 9.00455e-06 0 15.67 0 35V283C0 302.33 15.67 318 35 318H226C245.33 318 261 302.33 261 283V103L158 0Z" fill="#C4C4C4"/>
<path d="M261 103H158V0L261 103Z" fill="#E5E5E5"/>
<path d="M116.916 99.4111L109.844 95.3272C110.558 91.4756 110.558 87.5244 109.844 83.6729L116.916 79.5889C117.729 79.124 118.095 78.1611 117.829 77.2647C115.986 71.3545 112.849 66.0088 108.748 61.5596C108.117 60.8789 107.088 60.7129 106.291 61.1777L99.2187 65.2617C96.2471 62.7051 92.8271 60.7295 89.125 59.4346V51.2832C89.125 50.3535 88.4775 49.54 87.5644 49.3408C81.4717 47.9795 75.2295 48.0459 69.4355 49.3408C68.5225 49.54 67.875 50.3535 67.875 51.2832V59.4512C64.1894 60.7627 60.7695 62.7383 57.7812 65.2783L50.7256 61.1943C49.9121 60.7295 48.8994 60.8789 48.2685 61.5762C44.168 66.0088 41.0303 71.3545 39.1875 77.2813C38.9053 78.1777 39.2871 79.1406 40.1006 79.6055L47.1728 83.6895C46.459 87.541 46.459 91.4922 47.1728 95.3438L40.1006 99.4277C39.2871 99.8926 38.9219 100.855 39.1875 101.752C41.0303 107.662 44.168 113.008 48.2685 117.457C48.8994 118.138 49.9287 118.304 50.7256 117.839L57.7978 113.755C60.7695 116.312 64.1894 118.287 67.8916 119.582V127.75C67.8916 128.68 68.5391 129.493 69.4521 129.692C75.5449 131.054 81.7871 130.987 87.581 129.692C88.4941 129.493 89.1416 128.68 89.1416 127.75V119.582C92.8271 118.271 96.2471 116.295 99.2353 113.755L106.308 117.839C107.121 118.304 108.134 118.154 108.765 117.457C112.865 113.024 116.003 107.679 117.846 101.752C118.095 100.839 117.729 99.876 116.916 99.4111V99.4111ZM78.5 102.781C71.1787 102.781 65.2187 96.8213 65.2187 89.5C65.2187 82.1787 71.1787 76.2188 78.5 76.2188C85.8213 76.2188 91.7812 82.1787 91.7812 89.5C91.7812 96.8213 85.8213 102.781 78.5 102.781Z" fill="#E5E5E5"/>
<path d="M152.925 145.463L147.6 142.388C148.137 139.488 148.137 136.513 147.6 133.613L152.925 130.538C153.537 130.188 153.812 129.463 153.612 128.788C152.225 124.338 149.862 120.313 146.775 116.963C146.3 116.45 145.525 116.325 144.925 116.675L139.6 119.75C137.362 117.825 134.787 116.338 132 115.363V109.225C132 108.525 131.512 107.913 130.825 107.763C126.237 106.738 121.537 106.788 117.175 107.763C116.487 107.913 116 108.525 116 109.225V115.375C113.225 116.363 110.65 117.85 108.4 119.763L103.087 116.688C102.475 116.338 101.712 116.45 101.237 116.975C98.15 120.313 95.7875 124.338 94.4 128.8C94.1875 129.475 94.475 130.2 95.0875 130.55L100.412 133.625C99.875 136.525 99.875 139.5 100.412 142.4L95.0875 145.475C94.475 145.825 94.2 146.55 94.4 147.225C95.7875 151.675 98.15 155.7 101.237 159.05C101.712 159.563 102.487 159.688 103.087 159.338L108.412 156.263C110.65 158.188 113.225 159.675 116.012 160.65V166.8C116.012 167.5 116.5 168.113 117.187 168.263C121.775 169.288 126.475 169.238 130.837 168.263C131.525 168.113 132.012 167.5 132.012 166.8V160.65C134.787 159.663 137.362 158.175 139.612 156.263L144.937 159.338C145.55 159.688 146.312 159.575 146.787 159.05C149.875 155.713 152.237 151.688 153.625 147.225C153.812 146.538 153.537 145.813 152.925 145.463V145.463ZM124 148C118.487 148 114 143.513 114 138C114 132.488 118.487 128 124 128C129.512 128 134 132.488 134 138C134 143.513 129.512 148 124 148Z" fill="#E5E5E5"/>
<rect x="26" y="195" width="212" height="13" fill="#E5E5E5"/>
<rect x="26" y="218" width="212" height="13" fill="#E5E5E5"/>
<rect x="26" y="241" width="212" height="13" fill="#E5E5E5"/>
<rect x="26" y="264" width="212" height="13" fill="#E5E5E5"/>
</svg>
