<svg width="261" height="318" viewBox="0 0 261 318" fill="none" xmlns="http://www.w3.org/2000/svg">
<rect width="261" height="318" rx="35" fill="#C4C4C4"/>
<rect x="41" y="186" width="79" height="44" rx="11" fill="#5F5F5F"/>
<rect x="41" y="131" width="79" height="44" rx="11" fill="#5F5F5F"/>
<rect x="141" y="186" width="79" height="44" rx="11" fill="#5F5F5F"/>
<rect x="141" y="131" width="79" height="44" rx="11" fill="#5F5F5F"/>
<rect x="141" y="241" width="79" height="44" rx="11" fill="#5F5F5F"/>
<rect x="41" y="241" width="79" height="44" rx="11" fill="#5F5F5F"/>
<g clip-path="url(#clip0)">
<path d="M190.496 44.5203L135.144 27.4473C132.127 26.5169 128.873 26.5169 125.859 27.4473L70.5045 44.5203C65.8333 45.9607 65.8333 52.1623 70.5045 53.6027L80.1545 56.579C78.0372 59.2067 76.7354 62.4122 76.6065 65.9224C74.6955 67.0221 73.3501 69.0063 73.3501 71.375C73.3501 73.5226 74.4772 75.3295 76.1005 76.485L71.0343 99.3712C70.5938 101.361 72.1019 103.25 74.1319 103.25H85.2663C87.2983 103.25 88.8064 101.361 88.3659 99.3712L83.2998 76.485C84.923 75.3295 86.0501 73.5226 86.0501 71.375C86.0501 69.07 84.7662 67.1416 82.9426 66.022C83.0934 63.0297 84.6174 60.3841 87.0482 58.7067L125.857 70.6777C127.655 71.2316 131.103 71.9229 135.142 70.6777L190.496 53.6047C195.169 52.1623 195.169 45.9627 190.496 44.5203V44.5203ZM137.007 76.7718C131.345 78.517 126.521 77.5528 123.991 76.7718L95.2139 67.8966L92.4001 90.5C92.4001 97.5424 109.458 103.25 130.5 103.25C151.542 103.25 168.6 97.5424 168.6 90.5L165.786 67.8947L137.007 76.7718V76.7718Z" fill="#5F5F5F"/>
</g>
<defs>
<clipPath id="clip0">
<rect width="127" height="102" fill="white" transform="translate(67 14)"/>
</clipPath>
</defs>
</svg>
